<svg width="18" height="18" viewBox="0 0 18 18" fill="none" xmlns="http://www.w3.org/2000/svg">
<g id="5">
<path id="Rectangle 5761 (Stroke)" fill-rule="evenodd" clip-rule="evenodd" d="M15 5.86646L10.8758 2H3V16H15V5.86646ZM2 0C1.44772 0 1 0.447716 1 1V17C1 17.5523 1.44772 18 2 18H16C16.5523 18 17 17.5523 17 17V5.43323C17 5.15682 16.8856 4.89274 16.6839 4.7037L11.9552 0.270463C11.7698 0.0967008 11.5253 0 11.2712 0H2Z" fill="white"/>
<rect id="Rectangle 5758" x="4" y="4.5" width="4" height="1.5" rx="0.75" fill="#1F67D8"/>
<rect id="Rectangle 5759" x="4" y="8" width="10" height="2" rx="1" fill="#1F67D8"/>
<rect id="Rectangle 5760" x="10" y="12" width="4" height="1.5" rx="0.75" fill="#1F67D8"/>
</g>
</svg>
