<svg width="18" height="18" viewBox="0 0 18 18" fill="none" xmlns="http://www.w3.org/2000/svg">
<g id="7">
<path id="Vector" d="M6.81667 3.47735C6.44167 3.47735 6.11111 3.25264 6.04444 2.93525C6.01389 2.79161 6 2.64566 6 2.50203C6 1.1236 7.34444 0 9 0C10.6556 0 12 1.12128 12 2.50203C12 2.64566 11.9833 2.79161 11.9556 2.93525C11.8806 3.28739 11.4806 3.526 11.0556 3.46809L9.47778 3.25495C9.16111 3.21093 8.83889 3.21093 8.51944 3.25495L6.94167 3.46809C6.9 3.47504 6.85833 3.47735 6.81667 3.47735ZM8.99722 1.91359C9.24167 1.91359 9.48611 1.9298 9.72778 1.96224V1.96224C9.9774 1.99563 10.1339 1.74486 9.92943 1.59788C9.67922 1.41807 9.3537 1.30893 8.99722 1.30893C8.64074 1.30893 8.31523 1.41807 8.06501 1.59788C7.8605 1.74486 8.01704 1.99563 8.26667 1.96224V1.96224C8.51111 1.9298 8.75556 1.91359 8.99722 1.91359Z" fill="#1F67D8"/>
<g id="Vector_2">
<path d="M15.8229 15H2.17731C1.78569 15 1.42124 14.8324 1.20166 14.5536C0.98208 14.2729 0.93907 13.9201 1.08621 13.6062L2.19995 11.2378V7.63939C2.19995 6.8811 2.37425 6.14426 2.71834 5.44836C3.04884 4.77779 3.52195 4.17545 4.12409 3.65693C4.72624 3.13841 5.42572 2.73101 6.20443 2.44641C7.01257 2.15011 8.10359 2.00001 8.98417 2.00001H9.00001C9.88059 2.00001 10.5009 2.15011 11.3091 2.44641C12.0878 2.73101 12.7873 3.13841 13.3894 3.65693C13.9916 4.17545 14.4647 4.77779 14.7952 5.44836C15.1392 6.14426 15.3136 6.8811 15.3136 7.63939V11.193L16.8415 13.4815C17.0543 13.7992 17.0521 14.1774 16.8393 14.4951C16.6288 14.8109 16.2462 15 15.8229 15ZM2.58025 13.7524H15.352L13.8648 11.5263V7.63939C13.8648 6.47175 13.3328 5.37038 12.3662 4.53802C11.3996 3.70566 10.416 3.24758 9.06001 3.24758H8.94001C7.58406 3.24758 6.11388 3.70566 5.14728 4.53802C4.18069 5.37038 3.64872 6.47175 3.64872 7.63939V11.4815L2.58025 13.7524Z" fill="white"/>
<path fill-rule="evenodd" clip-rule="evenodd" d="M8.98417 2.30001C8.12896 2.30001 7.07462 2.44689 6.3077 2.72807C5.56157 3.00076 4.89352 3.39027 4.31985 3.88426C3.74621 4.37824 3.29893 4.94896 2.98743 5.58098C2.66329 6.23655 2.49995 6.92834 2.49995 7.63939V11.3048L1.35784 13.7336C1.2605 13.9413 1.28555 14.1737 1.43768 14.3684C1.59448 14.5672 1.86779 14.7 2.17731 14.7H15.8229C16.1603 14.7 16.4423 14.5497 16.5897 14.3287C16.7357 14.1107 16.7366 13.8639 16.5923 13.6484L15.0136 11.2839V7.63939C15.0136 6.92834 14.8504 6.23689 14.5262 5.58132C14.2147 4.9493 13.7673 4.37824 13.1937 3.88426C12.62 3.39027 11.9522 3.00087 11.2061 2.72818C10.4208 2.44024 9.83586 2.30001 9.00001 2.30001H8.98417ZM6.10137 2.16467C6.9507 1.85331 8.07829 1.70001 8.98417 1.70001H9.00001C9.92525 1.70001 10.5813 1.86006 11.4121 2.16467C12.2234 2.46117 12.9546 2.88658 13.5852 3.4296C14.2158 3.97262 14.7147 4.60652 15.0642 5.31556M6.10137 2.16467C5.29011 2.46117 4.55894 2.88658 3.92834 3.4296C3.29779 3.97258 2.7989 4.60642 2.44941 5.31539C2.08539 6.05163 1.89995 6.83387 1.89995 7.63939V11.1708L0.814729 13.4786C0.617882 13.8984 0.678599 14.3719 0.965366 14.7385L0.965993 14.7393C1.24841 15.0978 1.70383 15.3 2.17731 15.3H15.8229C16.3321 15.3 16.8152 15.0721 17.0889 14.6615C17.3681 14.2442 17.372 13.7344 17.0908 13.3146L15.6136 11.102V7.63939C15.6136 6.834 15.4281 6.0517 15.0642 5.31556M4.95153 4.31069C5.98326 3.42225 7.5277 2.94758 8.94001 2.94758H9.06001C10.5007 2.94758 11.5516 3.44062 12.562 4.31069C13.5879 5.19413 14.1648 6.37574 14.1648 7.63939V11.4353L15.9133 14.0524H2.10756L3.34872 11.4144V7.63939C3.34872 6.37574 3.92561 5.19413 4.95153 4.31069ZM8.94001 3.54758C7.64042 3.54758 6.24451 3.98908 5.34304 4.76535C4.43576 5.54663 3.94872 6.56775 3.94872 7.63939V11.5485L3.05294 13.4524H14.7908L13.5648 11.6173V7.63939C13.5648 6.56775 13.0777 5.54663 12.1705 4.76535C11.2477 3.97071 10.3312 3.54758 9.06001 3.54758H8.94001Z" fill="white"/>
</g>
<rect id="Rectangle 6330" x="5" y="16" width="8" height="2" rx="1" fill="#1F67D8"/>
</g>
</svg>
