<svg width="16" height="16" viewBox="0 0 16 16" fill="none" xmlns="http://www.w3.org/2000/svg">
<g id="icon">
<rect id="Rectangle 6697" x="0.5" y="0.5" width="15" height="15" rx="1.5" fill="#333333" stroke="#333333"/>
<path id="Rectangle 6698" d="M4 15C4 14.4477 4.44772 14 5 14H11C11.5523 14 12 14.4477 12 15V16H4V15Z" fill="#999999"/>
<path id="P" d="M5.4 13V2.738H8.326C10.636 2.738 12.176 3.508 12.176 5.748C12.176 7.918 10.636 8.926 8.396 8.926H6.702V13H5.4ZM6.702 7.876H8.228C10.034 7.876 10.888 7.218 10.888 5.748C10.888 4.264 9.978 3.788 8.172 3.788H6.702V7.876Z" fill="white"/>
</g>
</svg>
