<svg width="16" height="16" viewBox="0 0 16 16" fill="none" xmlns="http://www.w3.org/2000/svg">
<g id="icon">
<rect id="Rectangle 6697" x="0.5" y="0.5" width="15" height="15" rx="1.5" fill="#333333" stroke="#333333"/>
<path id="Rectangle 6698" d="M4 15C4 14.4477 4.44772 14 5 14H11C11.5523 14 12 14.4477 12 15V16H4V15Z" fill="#999999"/>
<path id="S" d="M8.256 13.182C6.8 13.182 5.554 12.594 4.658 11.656L5.428 10.774C6.17 11.544 7.206 12.048 8.27 12.048C9.614 12.048 10.426 11.376 10.426 10.368C10.426 9.318 9.684 8.982 8.718 8.548L7.234 7.904C6.282 7.498 5.148 6.77 5.148 5.272C5.148 3.69 6.52 2.542 8.382 2.542C9.6 2.542 10.678 3.06 11.406 3.816L10.72 4.642C10.09 4.054 9.334 3.676 8.382 3.676C7.22 3.676 6.464 4.264 6.464 5.188C6.464 6.182 7.36 6.56 8.158 6.896L9.628 7.526C10.818 8.044 11.742 8.744 11.742 10.27C11.742 11.894 10.398 13.182 8.256 13.182Z" fill="white"/>
</g>
</svg>
