<svg width="14" height="14" viewBox="0 0 14 14" fill="none" xmlns="http://www.w3.org/2000/svg">
<g id="icon">
<rect id="Rectangle 6008" x="1.5" y="1.5" width="11" height="11" rx="5.5" stroke="#D1D5DD" stroke-linejoin="round"/>
<path id="Ellipse 2147" d="M9.5 7C9.5 8.59606 9.17547 10.0163 8.67411 11.019C8.15779 12.0517 7.53701 12.5 7 12.5C6.46299 12.5 5.84221 12.0517 5.32589 11.019C4.82453 10.0163 4.5 8.59606 4.5 7C4.5 5.40394 4.82453 3.98369 5.32589 2.98097C5.84221 1.94833 6.46299 1.5 7 1.5C7.53701 1.5 8.15779 1.94833 8.67411 2.98097C9.17547 3.98369 9.5 5.40394 9.5 7Z" stroke="#D1D5DD" stroke-linejoin="round"/>
<path id="Ellipse 2148" d="M12.5 7C12.5 7.05728 12.4656 7.19142 12.219 7.38578C11.978 7.57571 11.5983 7.76861 11.0845 7.93987C10.0622 8.28065 8.61807 8.5 7 8.5C5.38193 8.5 3.9378 8.28065 2.91547 7.93987C2.4017 7.76861 2.02199 7.57571 1.781 7.38578C1.53437 7.19142 1.5 7.05728 1.5 7C1.5 6.94272 1.53437 6.80858 1.781 6.61422C2.02199 6.42429 2.4017 6.23139 2.91547 6.06013C3.9378 5.71935 5.38193 5.5 7 5.5C8.61807 5.5 10.0622 5.71935 11.0845 6.06013C11.5983 6.23139 11.978 6.42429 12.219 6.61422C12.4656 6.80858 12.5 6.94272 12.5 7Z" stroke="#D1D5DD" stroke-linejoin="round"/>
</g>
</svg>
