<svg width="18" height="18" viewBox="0 0 18 18" fill="none" xmlns="http://www.w3.org/2000/svg">
<path d="M8.99974 2.19609L15.2046 7.20149L14.9161 7.26448L14.9166 15.8074C14.9166 15.9277 14.837 15.9895 14.7717 15.9988L14.7618 15.9996L14.7433 16H3.23507C3.20634 16 3.17784 15.9912 3.14725 15.9614C3.11819 15.9331 3.09067 15.8876 3.08399 15.82L3.08327 15.786L3.08276 7.23519L2.81856 7.18235L8.99974 2.19609ZM16.9874 8.85927C17.2753 8.78645 17.5306 8.61923 17.7123 8.38432C18.1688 7.79687 18.0715 6.94432 17.4951 6.47959L9.8259 0.292913C9.59226 0.103416 9.30057 0 8.99974 0C8.69892 0 8.40723 0.103416 8.17359 0.292913L0.504815 6.47918C0.185726 6.73691 0 7.12841 0 7.54282L0.00204544 7.61973C0.0355907 8.23091 0.466361 8.73409 1.03581 8.86541L1.08286 8.87482L1.08327 15.8073L1.08531 15.9038C1.14381 17.0832 2.08758 18 3.23507 18H14.7648L14.8597 17.998L14.9506 17.991C16.0637 17.8875 16.9166 16.9458 16.9166 15.8073L16.9162 8.87482L16.9874 8.85927Z" fill="white"/>
<path d="M11.7201 11.7175C11.8252 11.8417 11.8767 12.0026 11.8632 12.1648C11.8497 12.327 11.7723 12.4772 11.6481 12.5823C10.8974 13.2176 10.0776 13.5457 9.20621 13.5457C8.33486 13.5457 7.51504 13.2176 6.76395 12.5823C6.70244 12.5302 6.6518 12.4665 6.61491 12.3948C6.57802 12.3231 6.55561 12.2449 6.54897 12.1645C6.54232 12.0842 6.55156 12.0033 6.57616 11.9265C6.60077 11.8498 6.64025 11.7786 6.69236 11.7171C6.74447 11.6556 6.80819 11.6049 6.87987 11.568C6.95156 11.5311 7.02981 11.5087 7.11015 11.5021C7.19049 11.4954 7.27136 11.5047 7.34813 11.5293C7.4249 11.5539 7.49607 11.5934 7.55759 11.6455C8.09472 12.1008 8.6384 12.3184 9.20621 12.3184C9.77362 12.3184 10.3173 12.1008 10.8548 11.6455C10.9164 11.5934 10.9876 11.5539 11.0643 11.5293C11.1411 11.5047 11.222 11.4955 11.3024 11.5022C11.3827 11.5089 11.461 11.5313 11.5326 11.5683C11.6043 11.6052 11.668 11.6559 11.7201 11.7175Z" fill="var(--icon-color, #567EB3)"/>
</svg>
