<svg width="14" height="14" viewBox="0 0 14 14" fill="none" xmlns="http://www.w3.org/2000/svg">
<g id="&#229;&#174;&#161;&#230;&#160;&#184;_audit 2">
<path id="Vector" d="M2.33398 10.5L2.33533 8.17913C2.33559 8.01813 2.46615 7.88764 2.62716 7.88747C3.59956 7.88747 4.57197 7.88747 5.54439 7.88747C5.81316 7.88747 5.81173 7.64906 5.81173 7.08147C5.81173 6.51389 4.3821 6.03582 4.3821 4.04044C4.3821 2.04506 5.86312 1.45837 7.09398 1.45837C8.32485 1.45837 9.66549 2.04506 9.66549 4.04044C9.66549 6.03582 8.24336 6.35307 8.24336 7.08147C8.24336 7.80985 8.24336 7.88747 8.47103 7.88747C9.43925 7.88747 10.4075 7.88747 11.3757 7.88747C11.5368 7.88747 11.6674 8.01807 11.6674 8.17913V10.5H2.33398Z" stroke="#D1D5DD" stroke-linejoin="round"/>
<path id="Vector_2" d="M2.33398 12.25H11.6673" stroke="#D1D5DD" stroke-linecap="round" stroke-linejoin="round"/>
</g>
</svg>
