<svg width="14" height="14" viewBox="0 0 14 14" fill="none" xmlns="http://www.w3.org/2000/svg">
<g id="icon">
<path id="Subtract" fill-rule="evenodd" clip-rule="evenodd" d="M7 12C4.23858 12 2 9.76142 2 7C2 4.23858 4.23858 2 7 2C8.25693 2 9.40554 2.4638 10.284 3.22959L11.1777 2.69338C10.0974 1.64525 8.62406 1 7 1C3.68629 1 1 3.68629 1 7C1 10.3137 3.68629 13 7 13C10.3137 13 13 10.3137 13 7H12C12 9.76142 9.76142 12 7 12Z" fill="#D1D5DD"/>
<circle id="Ellipse 2095" cx="12.5" cy="7" r="0.5" fill="#D1D5DD"/>
<path id="Vector 976" d="M7 4.5V7L9.5 8.5" stroke="#D1D5DD" stroke-linecap="round" stroke-linejoin="round"/>
<path id="Vector" d="M10.1006 3.15001H10.3182L10.92 2.45763V2.33894C10.9197 2.27852 10.9313 2.21864 10.9541 2.16271C10.9769 2.10678 11.0106 2.05589 11.0531 2.01296C11.0956 1.97002 11.1461 1.93588 11.2018 1.91249C11.2575 1.88909 11.3173 1.87689 11.3777 1.87659H11.38C11.5015 1.87658 11.6181 1.92468 11.7043 2.01036C11.7905 2.09604 11.8393 2.21234 11.8401 2.33388L11.8479 3.6119C11.8479 3.61834 11.8442 3.6234 11.8442 3.62984C11.8422 3.67331 11.8338 3.71624 11.8194 3.75728C11.8138 3.77154 11.8106 3.7881 11.8037 3.80328C11.7867 3.83748 11.7654 3.86934 11.7402 3.89805C11.7263 3.91629 11.7109 3.93337 11.6942 3.94912C11.6866 3.9589 11.6785 3.96827 11.6698 3.97718C11.6509 3.98849 11.6311 3.99819 11.6105 4.00617C11.5937 4.01802 11.576 4.02848 11.5576 4.03745C11.5516 4.04205 11.5442 4.03975 11.5378 4.04205C11.5069 4.05203 11.4749 4.05866 11.4426 4.06183C11.4249 4.06666 11.4069 4.07035 11.3887 4.07287H11.3782L10.1006 4.07011C9.9786 4.07009 9.86161 4.02162 9.77535 3.93534C9.68909 3.84907 9.64062 3.73206 9.64062 3.61006C9.64062 3.48806 9.68909 3.37106 9.77535 3.28478C9.86161 3.19851 9.9786 3.15003 10.1006 3.15001Z" fill="#D1D5DD"/>
</g>
</svg>
