<svg width="14" height="14" viewBox="0 0 14 14" fill="none" xmlns="http://www.w3.org/2000/svg">
<g id="icon">
<path id="Vector" d="M4.51322 6.42556L6.51011 4.40263M8.52311 1.06786C8.56759 0.97739 8.56759 0.97737 8.61206 1.06786C8.62629 1.0968 8.64054 1.12572 8.65578 1.15424C8.84284 1.50408 9.13751 1.79775 9.50436 2.00004C9.52679 2.01242 9.5495 2.02445 9.57247 2.03613C9.64462 2.07281 9.64466 2.07281 9.57247 2.10952C9.5495 2.1212 9.52679 2.13324 9.50436 2.14561C9.13751 2.3479 8.84284 2.64157 8.65578 2.99141C8.64054 3.01993 8.62629 3.04885 8.61206 3.07779C8.56759 3.16826 8.56759 3.16825 8.52311 3.07779C8.50888 3.04885 8.49464 3.01993 8.47939 2.99141C8.29234 2.64157 7.99767 2.3479 7.63082 2.14561C7.60838 2.13324 7.58567 2.1212 7.5627 2.10952C7.4905 2.07281 7.49058 2.07281 7.5627 2.03613C7.58567 2.02445 7.60838 2.01242 7.63082 2.00004C7.99767 1.79775 8.29234 1.50408 8.47939 1.15424C8.49461 1.12577 8.50888 1.09681 8.52311 1.06786ZM11.715 4.62131C11.7446 4.56099 11.7446 4.56098 11.7743 4.62131C11.7837 4.6406 11.7932 4.65988 11.8034 4.67889C11.9281 4.91212 12.1246 5.1079 12.3691 5.24276C12.3841 5.25101 12.3992 5.25903 12.4145 5.26682C12.4626 5.29127 12.4627 5.29127 12.4145 5.31575C12.3992 5.32353 12.3841 5.33156 12.3691 5.3398C12.1246 5.47466 11.9281 5.67044 11.8034 5.90367C11.7932 5.92269 11.7837 5.94197 11.7743 5.96126C11.7446 6.02157 11.7446 6.02156 11.715 5.96126C11.7055 5.94197 11.696 5.92269 11.6858 5.90367C11.5611 5.67044 11.3647 5.47466 11.1201 5.3398C11.1051 5.33156 11.09 5.32353 11.0747 5.31575C11.0266 5.29127 11.0266 5.29127 11.0747 5.26682C11.09 5.25903 11.1051 5.25101 11.1201 5.24276C11.3647 5.1079 11.5611 4.91212 11.6858 4.67889C11.696 4.65991 11.7055 4.6406 11.715 4.62131ZM2.50073 8.90763C2.56652 8.75684 2.56652 8.75681 2.63231 8.90763C2.65336 8.95586 2.67443 9.00406 2.69698 9.05159C2.97368 9.63466 3.40957 10.1241 3.95222 10.4613C3.98541 10.4819 4.019 10.5019 4.05298 10.5214C4.1597 10.5825 4.15976 10.5825 4.05298 10.6437C4.019 10.6632 3.98541 10.6833 3.95222 10.7039C3.40957 11.041 2.97368 11.5305 2.69698 12.1135C2.67443 12.1611 2.65336 12.2093 2.63231 12.2575C2.56652 12.4083 2.56652 12.4083 2.50073 12.2575C2.47968 12.2093 2.45861 12.1611 2.43606 12.1135C2.15936 11.5305 1.72348 11.041 1.18082 10.7039C1.14763 10.6833 1.11404 10.6632 1.08006 10.6437C0.973256 10.5825 0.973372 10.5825 1.08006 10.5214C1.11404 10.5019 1.14763 10.4819 1.18082 10.4613C1.72348 10.1241 2.15936 9.63466 2.43606 9.05159C2.45857 9.00413 2.47968 8.95587 2.50073 8.90763ZM12.0145 11.9754V11.9754C12.5608 11.422 12.5608 10.5322 12.0145 9.97871L5.02539 2.89846C4.46895 2.33477 3.55907 2.33477 3.00263 2.89846V2.89846C2.4563 3.45192 2.4563 4.34172 3.00263 4.89518L9.99173 11.9754C10.5482 12.5391 11.4581 12.5391 12.0145 11.9754Z" stroke="#D1D5DD"/>
</g>
</svg>
