<svg width="18" height="18" viewBox="0 0 18 18" fill="none" xmlns="http://www.w3.org/2000/svg">
<g id="home_n">
<path id="Rectangle 6110 (Stroke)" fill-rule="evenodd" clip-rule="evenodd" d="M2 5V15H16V5H2ZM1 3C0.447715 3 0 3.44772 0 4V16C0 16.5523 0.447716 17 1 17H17C17.5523 17 18 16.5523 18 16V4C18 3.44772 17.5523 3 17 3H1Z" fill="white"/>
<path id="Rectangle 6106 (Stroke)" fill-rule="evenodd" clip-rule="evenodd" d="M6 1C5.44772 1 5 1.44772 5 2V4C5 4.55228 5.44772 5 6 5H12C12.5523 5 13 4.55228 13 4V2C13 1.44772 12.5523 1 12 1H6Z" fill="white"/>
<path id="Rectangle 6107 (Stroke)" fill-rule="evenodd" clip-rule="evenodd" d="M2 8V10H16V8H2Z" fill="#1F67D8"/>
<path id="Rectangle 6108 (Stroke)" fill-rule="evenodd" clip-rule="evenodd" d="M7 8C7 7.44772 6.55228 7 6 7C5.44772 7 5 7.44772 5 8V10C5 10.5523 5.44772 11 6 11C6.55228 11 7 10.5523 7 10V8Z" fill="#1F67D8"/>
<path id="Rectangle 6109 (Stroke)" fill-rule="evenodd" clip-rule="evenodd" d="M13 8C13 7.44772 12.5523 7 12 7C11.4477 7 11 7.44772 11 8V10C11 10.5523 11.4477 11 12 11C12.5523 11 13 10.5523 13 10V8Z" fill="#1F67D8"/>
</g>
</svg>
