<svg width="16" height="16" viewBox="0 0 16 16" fill="none" xmlns="http://www.w3.org/2000/svg">
<g id="icon">
<rect id="Rectangle 6697" x="0.5" y="0.5" width="15" height="15" rx="1.5" fill="#333333" stroke="#333333"/>
<path id="Rectangle 6698" d="M4 15C4 14.4477 4.44772 14 5 14H11C11.5523 14 12 14.4477 12 15V16H4V15Z" fill="#999999"/>
<path id="%" d="M4.37 9.024C2.97 9.024 2.046 7.834 2.046 5.762C2.046 3.704 2.97 2.542 4.37 2.542C5.784 2.542 6.708 3.704 6.708 5.762C6.708 7.834 5.784 9.024 4.37 9.024ZM4.37 8.226C5.182 8.226 5.742 7.4 5.742 5.762C5.742 4.124 5.182 3.326 4.37 3.326C3.572 3.326 3.012 4.124 3.012 5.762C3.012 7.4 3.572 8.226 4.37 8.226ZM4.678 13.182L10.334 2.542H11.202L5.532 13.182H4.678ZM11.524 13.182C10.124 13.182 9.186 12.006 9.186 9.934C9.186 7.876 10.124 6.714 11.524 6.714C12.924 6.714 13.848 7.876 13.848 9.934C13.848 12.006 12.924 13.182 11.524 13.182ZM11.524 12.398C12.322 12.398 12.882 11.572 12.882 9.934C12.882 8.296 12.322 7.498 11.524 7.498C10.712 7.498 10.152 8.296 10.152 9.934C10.152 11.572 10.712 12.398 11.524 12.398Z" fill="white"/>
</g>
</svg>
