<svg width="14" height="14" viewBox="0 0 14 14" fill="none" xmlns="http://www.w3.org/2000/svg">
<g id="&#229;&#174;&#154;&#228;&#189;&#141;icon">
<path id="Vector" d="M7.62836 12.7407L7.62059 12.7483L7.61316 12.7562C7.33096 13.0577 6.78288 13.0924 6.41869 12.7881C6.40519 12.7685 6.39278 12.753 6.38346 12.7419C6.34081 12.6912 6.29449 12.6534 6.27557 12.638C6.25468 12.6209 6.24004 12.6093 6.22871 12.6004C6.20881 12.5847 6.19915 12.577 6.18382 12.562L5.68975 12.0782C5.65413 12.0401 5.61833 12.0019 5.58239 11.9636C5.11498 11.4645 4.62293 10.9392 4.16901 10.4145C3.49654 9.53581 2.9312 8.72315 2.5436 7.96667C2.19096 7.18783 2 6.55467 2 5.99485C2 3.2404 4.27803 1 7.06576 1C9.85848 1 12.1183 3.23987 11.9952 5.97234L11.9947 5.98359V5.99485C11.9947 6.56968 11.8391 7.20673 11.4563 7.95647L11.451 7.96672L11.4463 7.9772C11.1056 8.7279 10.5419 9.58152 9.83509 10.4036C9.33103 10.9869 8.84268 11.5516 8.31267 12.0706L7.81084 12.562L7.62836 12.7407Z" stroke="#D1D5DD"/>
<path id="Vector_2" d="M5.25 6.01172C5.25 5.03442 6.00599 4.26172 7 4.26172C7.99402 4.26172 8.75 5.03442 8.75 6.01172C8.75 6.98285 7.95772 7.76172 7 7.76172C6.04228 7.76172 5.25 6.98285 5.25 6.01172Z" stroke="#D1D5DD"/>
</g>
</svg>
