<svg width="14" height="14" viewBox="0 0 14 14" fill="none" xmlns="http://www.w3.org/2000/svg">
<g id="icon">
<path id="Subtract" fill-rule="evenodd" clip-rule="evenodd" d="M4 2H10C10.5523 2 11 2.44772 11 3V3.5H12V3C12 1.89543 11.1046 1 10 1H4C2.89543 1 2 1.89543 2 3V11C2 12.1046 2.89543 13 4 13H10C11.1046 13 12 12.1046 12 11V10.5H11V11C11 11.5523 10.5523 12 10 12H4C3.44772 12 3 11.5523 3 11V3C3 2.44772 3.44772 2 4 2Z" fill="#D1D5DD"/>
<rect id="Rectangle 6009" x="5.25" y="6.75" width="7.5" height="0.5" rx="0.25" stroke="#D1D5DD" stroke-width="0.5" stroke-linejoin="round"/>
<path id="Vector 975" d="M11 5L13 7L11 9" stroke="#D1D5DD" stroke-linecap="round" stroke-linejoin="round"/>
</g>
</svg>
