<svg width="18" height="18" viewBox="0 0 18 18" fill="none" xmlns="http://www.w3.org/2000/svg">
<path fill-rule="evenodd" clip-rule="evenodd" d="M11.7723 0.553455L14.9516 2.52087C15.1461 2.64127 15.2894 2.81365 15.3666 3.01666C15.5192 3.36526 15.4747 3.80759 15.123 4.12829C15.0615 4.1844 14.9932 4.31966 15.0493 4.63685C15.1029 4.93981 15.2513 5.26607 15.3919 5.48397C15.5312 5.69967 15.7215 5.93584 15.921 6.08791C16.1246 6.24303 16.2337 6.23832 16.2899 6.21944C16.6652 6.09345 17.0282 6.19437 17.2733 6.43528C17.4877 6.62351 17.6075 6.89774 17.5996 7.20513L17.5106 10.9809C17.5054 11.2051 17.4333 11.4132 17.3012 11.5826C17.3084 11.5724 17.3153 11.5621 17.3221 11.5517L17.277 11.6125C17.2853 11.6027 17.2933 11.5927 17.3012 11.5826C17.201 11.7255 17.0545 11.8558 16.8601 11.9302C16.646 12.012 16.4164 12.0095 16.2009 11.9372C16.1502 11.9202 16.0345 11.9146 15.8243 12.0711C15.622 12.2218 15.4333 12.454 15.3147 12.6537C15.1698 12.8977 15.018 13.2274 14.9616 13.5278C14.9033 13.8381 14.9677 13.9678 15.0341 14.0284C15.3186 14.288 15.4127 14.6429 15.3348 14.97C15.3374 14.9558 15.3396 14.9414 15.3416 14.9271L15.3239 15.0117C15.3278 14.9979 15.3315 14.9839 15.3348 14.97C15.2843 15.2505 15.1117 15.4986 14.8374 15.6505L11.5698 17.461C11.3869 17.5626 11.1854 17.6062 10.985 17.5867C10.9984 17.5873 11.0117 17.5876 11.0248 17.5877L10.9441 17.5818C10.9577 17.5838 10.9714 17.5854 10.985 17.5867C10.8045 17.5787 10.6096 17.5213 10.4398 17.3891C10.2523 17.2431 10.135 17.0367 10.0884 16.8075C10.0727 16.7306 10.002 16.6155 9.74018 16.5091C9.4858 16.4056 9.16583 16.3637 8.92287 16.3683C8.65461 16.3735 8.32994 16.4146 8.07597 16.5146C7.81871 16.6158 7.75091 16.7247 7.734 16.8076C7.65104 17.2147 7.36136 17.4856 7.00919 17.5642C6.74974 17.6379 6.4719 17.5977 6.22776 17.4466L3.04838 15.4792C2.85565 15.3596 2.7125 15.1885 2.63501 14.9873C2.48011 14.6382 2.52354 14.1936 2.87697 13.8719C2.93848 13.8157 3.00659 13.6805 2.95054 13.3635C2.89698 13.0605 2.74847 12.7342 2.60783 12.5163C2.46872 12.3006 2.2784 12.0643 2.07885 11.9122C1.87531 11.7571 1.76636 11.7619 1.71023 11.7807C1.33246 11.9074 0.967401 11.8042 0.722701 11.5609C0.511079 11.3727 0.393273 11.1006 0.400299 10.7964L0.48898 7.01916C0.494588 6.79522 0.567013 6.58642 0.698784 6.41738C0.799016 6.27457 0.94547 6.14421 1.13989 6.06986C1.35396 5.98799 1.58356 5.99055 1.7991 6.06283C1.85003 6.07994 1.96569 6.08531 2.17585 5.92882C2.37825 5.77811 2.5669 5.54604 2.68547 5.34631C2.82668 5.1085 2.97534 4.78754 3.03461 4.4916C3.09296 4.20023 3.04392 4.06123 2.98767 3.99456C2.97051 3.97877 2.95457 3.96293 2.93979 3.94727C2.67509 3.68972 2.58977 3.34665 2.66515 3.03027C2.70714 2.79727 2.83475 2.58096 3.04399 2.42598C3.10353 2.37906 3.16955 2.33855 3.24129 2.30611L6.4306 0.538803C6.61344 0.437494 6.81518 0.3936 7.01635 0.413583C7.1966 0.421868 7.39112 0.479379 7.56067 0.611652C7.74778 0.757623 7.86473 0.96383 7.91134 1.19258C7.92702 1.26945 7.99766 1.38454 8.25979 1.49111C8.5143 1.59459 8.83439 1.63657 9.07741 1.63193C9.34531 1.62685 9.66995 1.58572 9.92388 1.48575C10.181 1.3845 10.2488 1.2757 10.2657 1.19286M11.7723 0.553455C11.5271 0.401719 11.2474 0.361532 10.9864 0.437159C10.636 0.516902 10.3482 0.78749 10.2657 1.19286M5.01878 3.64186C5.22969 4.52433 4.96115 5.51579 4.5226 6.28301C4.08375 7.05075 3.36253 7.78816 2.48611 8.03131L2.44394 9.8263C3.30837 10.085 4.01779 10.822 4.44888 11.5878C4.88518 12.3628 5.14805 13.3646 4.91811 14.2496L6.41971 15.1788C7.07036 14.5549 8.05315 14.2981 8.92673 14.301C9.80617 14.304 10.7953 14.5712 11.4385 15.2134L12.9816 14.3585C12.7707 13.476 13.0391 12.4846 13.4776 11.7173C13.9164 10.9495 14.6376 10.212 15.5141 9.96887L15.5564 8.17416C14.6919 7.91551 13.9824 7.17843 13.5514 6.4126C13.1151 5.6375 12.8522 4.63566 13.0821 3.75061L11.5807 2.82145C10.9301 3.44544 9.94724 3.70225 9.07365 3.69928C8.19417 3.69629 7.20503 3.42904 6.56175 2.78682L5.01878 3.64186Z" fill="white"/>
<path fill-rule="evenodd" clip-rule="evenodd" d="M5.60057 8.99309C5.63445 7.18695 7.10803 5.5649 9.00805 5.60057C10.8592 5.63545 12.3337 7.09163 12.398 8.93531C12.3995 8.95642 12.4002 8.97819 12.3999 9.00059C12.4002 9.02317 12.3995 9.04501 12.398 9.06613C12.3341 10.8467 10.8725 12.4348 8.993 12.3994C7.18699 12.3653 5.56494 10.8923 5.60057 8.99309ZM9.00807 7.13005C10.017 7.1112 10.847 7.98027 10.87 9.00041L9.00807 7.13005ZM10.87 9.00041C10.8466 10.0366 10.0308 10.8502 8.99306 10.8696C7.981 10.8887 7.14951 10.0151 7.13024 8.99288C7.11117 7.98085 7.9845 7.14935 9.00807 7.13005" fill="var(--icon-color, #567EB3)"/>
</svg>
