<svg width="18" height="18" viewBox="0 0 18 18" fill="none" xmlns="http://www.w3.org/2000/svg">
<path fill-rule="evenodd" clip-rule="evenodd" d="M3 2V12H15V2H3ZM2 0C1.44772 0 1 0.447716 1 1V13C1 13.5523 1.44772 14 2 14H16C16.5523 14 17 13.5523 17 13V1C17 0.447715 16.5523 0 16 0H2Z" fill="white"/>
<path fill-rule="evenodd" clip-rule="evenodd" d="M2 16C1.44772 16 1 16.4477 1 17C1 17.5523 1.44772 18 2 18H16C16.5523 18 17 17.5523 17 17C17 16.4477 16.5523 16 16 16H2Z" fill="white"/>
<path fill-rule="evenodd" clip-rule="evenodd" d="M13.2787 3.80384C13.6633 3.95768 13.8504 4.39416 13.6966 4.77874L11.9469 9.15298C11.6353 9.93177 10.6604 10.1888 10.0054 9.66483L6.41172 6.78989L5.72134 9.20624C5.60754 9.60452 5.19243 9.83514 4.79415 9.72134C4.39588 9.60755 4.16526 9.19244 4.27905 8.79416L5.07264 6.01659C5.31793 5.15809 6.35821 4.82614 7.05541 5.38391L10.6793 8.28301L12.3038 4.22166C12.4577 3.83707 12.8941 3.65001 13.2787 3.80384Z" fill="var(--icon-color, #567EB3)"/>
</svg>
