<svg width="18" height="18" viewBox="0 0 18 18" fill="none" xmlns="http://www.w3.org/2000/svg">
<path d="M1.08594 14.6719C0.502604 15.2552 0.502604 16.2552 1.08594 16.8385C1.41927 17.1719 1.83594 17.3385 2.2526 17.3385C2.66927 17.3385 3.08594 17.1719 3.33594 16.9219L7.78203 12.4758C8.17777 12.08 8.1717 11.4366 7.76857 11.0484L6.95374 10.2637C6.56349 9.88791 5.94495 9.89123 5.55876 10.2712L1.08594 14.6719ZM13.8061 5.28862C13.881 5.2113 13.968 5.1466 14.0636 5.09702L15.8878 4.15116C16.071 4.05619 16.2203 3.90689 16.3152 3.72373L16.999 2.40504C17.1996 2.01811 17.1265 1.5458 16.8183 1.23761L16.7702 1.18947C16.462 0.881278 15.9897 0.808194 15.6028 1.00882L14.2841 1.69259C14.1009 1.78756 13.9516 1.93686 13.8567 2.12002L12.9108 3.94417C12.8612 4.03979 12.7965 4.12677 12.7192 4.20175L10.6782 6.18092C10.3526 6.49665 10.3486 7.01784 10.6693 7.33854V7.33854C10.99 7.65925 11.5112 7.65524 11.8269 7.32964L13.8061 5.28862Z" fill="var(--icon-color, #567EB3)"/>
<path d="M14.4141 11.0885H14.1641C13.7474 11.0885 13.4141 11.1719 13.0807 11.2552L6.7474 4.83854C6.83073 4.50521 6.91406 4.17188 6.91406 3.75521V3.50521C6.83073 1.92187 5.41406 0.671875 3.83073 0.671875C3.33073 0.671875 2.83073 0.755208 2.4974 1.00521L4.58073 3.08854C4.66406 3.17188 4.7474 3.25521 4.7474 3.42187C4.91406 3.75521 4.83073 4.25521 4.4974 4.50521C4.33073 4.75521 4.08073 4.83854 3.83073 4.83854C3.66406 4.83854 3.58073 4.83854 3.41406 4.75521C3.33073 4.67187 3.16406 4.67188 3.08073 4.50521L0.997396 2.42188C0.830729 2.83854 0.664062 3.33854 0.664062 3.75521C0.664062 5.42188 1.91406 6.75521 3.58073 6.83854H3.83073C4.2474 6.83854 4.58073 6.75521 4.91406 6.67187L11.3307 13.0885C11.2474 13.4219 11.1641 13.7552 11.1641 14.1719V14.4219C11.2474 16.0885 12.5807 17.3385 14.2474 17.3385C14.7474 17.3385 15.1641 17.2552 15.5807 17.0052L13.4974 14.9219C13.4141 14.8385 13.3307 14.6719 13.2474 14.5885C13.0807 14.2552 13.1641 13.7552 13.4974 13.5052C13.6641 13.3385 13.9974 13.1719 14.2474 13.1719C14.3307 13.1719 14.4974 13.1719 14.5807 13.2552C14.7474 13.3385 14.8307 13.3385 14.9141 13.5052L16.9974 15.5885C17.1641 15.1719 17.3307 14.7552 17.3307 14.2552C17.3307 12.5885 16.0807 11.1719 14.4141 11.0885Z" fill="white"/>
</svg>
