<svg width="18" height="18" viewBox="0 0 18 18" fill="none" xmlns="http://www.w3.org/2000/svg">
<path fill-rule="evenodd" clip-rule="evenodd" d="M8.99735 2.31095L3.20312 5.65625V12.3469L8.99735 15.6922L14.7916 12.3469V5.65625L8.99735 2.31095ZM9.49735 0.290225C9.18795 0.111592 8.80675 0.111592 8.49735 0.290225L1.70312 4.21287C1.39372 4.39151 1.20312 4.72163 1.20312 5.0789V12.9242C1.20312 13.2815 1.39372 13.6116 1.70313 13.7902L8.49735 17.7129C8.80676 17.8915 9.18795 17.8915 9.49735 17.7129L16.2916 13.7902C16.601 13.6116 16.7916 13.2815 16.7916 12.9242V5.0789C16.7916 4.72163 16.601 4.39151 16.2916 4.21287L9.49735 0.290225Z" fill="white"/>
<path fill-rule="evenodd" clip-rule="evenodd" d="M8.42188 7.00002C8.76957 7.24837 9.23665 7.24837 9.58435 7.00002L10.6081 6.26874C11.0576 5.94773 11.6821 6.05182 12.0031 6.50123V6.50123C12.3241 6.95065 12.22 7.5752 11.7706 7.8962L10.4219 8.85959C10.1591 9.0473 10.0031 9.35038 10.0031 9.67333V11.5012C10.0031 12.0535 9.5554 12.5012 9.00311 12.5012V12.5012C8.45083 12.5012 8.00311 12.0535 8.00311 11.5012V9.67333C8.00311 9.35038 7.84715 9.0473 7.58435 8.85959L6.23561 7.89621C5.7862 7.5752 5.6821 6.95065 6.00311 6.50123V6.50123C6.32412 6.05182 6.94867 5.94773 7.39808 6.26874L8.42188 7.00002Z" fill="var(--icon-color, #567EB3)"/>
</svg>
