<svg width="18" height="18" viewBox="0 0 18 18" fill="none" xmlns="http://www.w3.org/2000/svg">
<path d="M6.81667 3.47735C6.44167 3.47735 6.11111 3.25264 6.04444 2.93525C6.01389 2.79161 6 2.64566 6 2.50203C6 1.1236 7.34444 0 9 0C10.6556 0 12 1.12128 12 2.50203C12 2.64566 11.9833 2.79161 11.9556 2.93525C11.8806 3.28739 11.4806 3.526 11.0556 3.46809L9.47778 3.25495C9.16111 3.21093 8.83889 3.21093 8.51944 3.25495L6.94167 3.46809C6.9 3.47504 6.85833 3.47735 6.81667 3.47735ZM8.99722 1.91359C9.24167 1.91359 9.48611 1.9298 9.72778 1.96224V1.96224C9.9774 1.99563 10.1339 1.74486 9.92943 1.59788C9.67922 1.41807 9.3537 1.30893 8.99722 1.30893C8.64074 1.30893 8.31523 1.41807 8.06501 1.59788C7.8605 1.74486 8.01704 1.99563 8.26667 1.96224V1.96224C8.51111 1.9298 8.75556 1.91359 8.99722 1.91359Z" fill="var(--icon-color, #567EB3)"/>
<path d="M15.8259 15.0031H2.18036C1.78874 15.0031 1.42429 14.8355 1.20471 14.5567C0.985132 14.276 0.942122 13.9232 1.08926 13.6094L2.203 11.2409V7.6425C2.203 6.88422 2.37731 6.14737 2.72139 5.45147C3.05189 4.7809 3.525 4.17856 4.12715 3.66004C4.72929 3.14153 5.42877 2.73412 6.20748 2.44952C7.01562 2.15322 8.10664 2.00312 8.98722 2.00312H9.00307C9.88364 2.00312 10.504 2.15322 11.3121 2.44952C12.0908 2.73412 12.7903 3.14153 13.3925 3.66004C13.9946 4.17856 14.4677 4.7809 14.7982 5.45147C15.1423 6.14737 15.3166 6.88422 15.3166 7.6425V11.1961L16.8446 13.4846C17.0574 13.8023 17.0551 14.1805 16.8423 14.4983C16.6318 14.814 16.2492 15.0031 15.8259 15.0031ZM2.5833 13.7556H15.3551L13.8678 11.5294V7.6425C13.8678 6.47486 13.3359 5.37349 12.3693 4.54114C11.4027 3.70878 10.419 3.25069 9.06307 3.25069H8.94306C7.58711 3.25069 6.11694 3.70878 5.15034 4.54114C4.18374 5.37349 3.65177 6.47486 3.65177 7.6425V11.4846L2.5833 13.7556Z" fill="white"/>
<path fill-rule="evenodd" clip-rule="evenodd" d="M8.98722 2.30313C8.13201 2.30313 7.07767 2.45 6.31075 2.73118C5.56462 3.00388 4.89657 3.39338 4.3229 3.88737C3.74926 4.38135 3.30198 4.95207 2.99048 5.58409C2.66634 6.23966 2.503 6.93145 2.503 7.6425V11.308L1.36089 13.7367C1.26356 13.9444 1.2886 14.1768 1.44073 14.3715C1.59753 14.5703 1.87084 14.7031 2.18036 14.7031H15.8259C16.1634 14.7031 16.4454 14.5528 16.5927 14.3318C16.7387 14.1138 16.7396 13.867 16.5953 13.6515L15.0166 11.2871V7.6425C15.0166 6.93145 14.8534 6.24 14.5293 5.58443C14.2178 4.95241 13.7703 4.38135 13.1967 3.88737C12.623 3.39338 11.9553 3.00398 11.2091 2.73129C10.4238 2.44335 9.83891 2.30313 9.00307 2.30313H8.98722ZM6.10442 2.16778C6.95376 1.85642 8.08134 1.70312 8.98722 1.70312H9.00307C9.9283 1.70312 10.5843 1.86317 11.4152 2.16778C12.2264 2.46429 12.9576 2.88969 13.5882 3.43272C14.2188 3.97573 14.7177 4.60963 15.0672 5.31867M6.10442 2.16778C5.29316 2.46429 4.56199 2.88969 3.93139 3.43272C3.30085 3.97569 2.80195 4.60953 2.45246 5.3185C2.08844 6.05474 1.903 6.83698 1.903 7.6425V11.1739L0.817781 13.4817C0.620933 13.9016 0.681651 14.375 0.968418 14.7416L0.969045 14.7424C1.25146 15.1009 1.70689 15.3031 2.18036 15.3031H15.8259C16.3351 15.3031 16.8182 15.0752 17.092 14.6647C17.3712 14.2473 17.3751 13.7375 17.0939 13.3177L15.6166 11.1052V7.6425C15.6166 6.83711 15.4311 6.05482 15.0672 5.31867M4.95458 4.31381C5.98631 3.42536 7.53075 2.95069 8.94306 2.95069H9.06307C10.5038 2.95069 11.5546 3.44373 12.565 4.31381C13.5909 5.19725 14.1678 6.37886 14.1678 7.6425V11.4384L15.9163 14.0556H2.11061L3.35177 11.4176V7.6425C3.35177 6.37886 3.92866 5.19725 4.95458 4.31381ZM8.94306 3.55069C7.64347 3.55069 6.24756 3.9922 5.3461 4.76847C4.43882 5.54974 3.95177 6.57086 3.95177 7.6425V11.5517L3.056 13.4556H14.7939L13.5678 11.6204V7.6425C13.5678 6.57086 13.0808 5.54974 12.1735 4.76847C11.2507 3.97383 10.3343 3.55069 9.06307 3.55069H8.94306Z" fill="white"/>
<rect x="5" y="16" width="8" height="2" rx="1" fill="var(--icon-color, #567EB3)"/>
</svg>
