<svg width="18" height="18" viewBox="0 0 18 18" fill="none" xmlns="http://www.w3.org/2000/svg">
<g id="Vector">
<path d="M7.5 2C7.5 1.44772 7.94772 1 8.5 1H9.5C10.0523 1 10.5 1.44772 10.5 2V16C10.5 16.5523 10.0523 17 9.5 17H8.5C7.94772 17 7.5 16.5523 7.5 16V2Z" fill="white"/>
<path d="M2 10C2 9.44772 2.44772 9 3 9H4C4.55228 9 5 9.44772 5 10V16C5 16.5523 4.55228 17 4 17H3C2.44772 17 2 16.5523 2 16V10Z" fill="white"/>
<path d="M13 7C13 6.44771 13.4477 6 14 6H15C15.5523 6 16 6.44772 16 7V16C16 16.5523 15.5523 17 15 17H14C13.4477 17 13 16.5523 13 16V7Z" fill="#1F67D8"/>
</g>
</svg>
