<svg width="14" height="14" viewBox="0 0 14 14" fill="none" xmlns="http://www.w3.org/2000/svg">
<g id="&#229;&#143;&#176;&#231;&#171;&#153;&#229;&#153;&#170;&#233;&#159;&#179;icon">
<path id="Vector 1106" d="M8 6.5L9.99547 5.70181C10.2671 5.59317 10.3878 5.27561 10.257 5.01397L9.76943 4.03886C9.62942 3.75884 9.77826 3.4205 10.0793 3.33449L13 2.5M12.5 12.5L10.2331 10.2331C10.0917 10.0917 10.0482 9.87959 10.1224 9.69388L10.5116 8.72104C10.6823 8.29416 10.235 7.88252 9.82374 8.08813L8 9" stroke="#D1D5DD" stroke-linejoin="round"/>
<path id="Vector 1105" d="M7 1.84976V12.1502L3.35608 10.1258C3.20752 10.0433 3.04038 10 2.87044 10H1.5V4H2.87044C3.04038 4 3.20752 3.95669 3.35608 3.87416L7 1.84976Z" stroke="#D1D5DD" stroke-linejoin="round"/>
</g>
</svg>
