<svg width="16" height="16" viewBox="0 0 16 16" fill="none" xmlns="http://www.w3.org/2000/svg">
<g id="icon">
<rect id="Rectangle 6697" x="0.5" y="0.5" width="15" height="15" rx="1.5" fill="#333333" stroke="#333333"/>
<path id="Rectangle 6698" d="M4 15C4 14.4477 4.44772 14 5 14H11C11.5523 14 12 14.4477 12 15V16H4V15Z" fill="#999999"/>
<path id="Q" d="M5.142 7.834C5.142 10.452 6.346 12.118 8.194 12.118C10.028 12.118 11.246 10.452 11.246 7.834C11.246 5.258 10.028 3.676 8.194 3.676C6.346 3.676 5.142 5.258 5.142 7.834ZM12.548 14.344L12.8 15.352C12.492 15.464 11.946 15.576 11.33 15.576C9.44 15.576 8.138 14.554 7.564 13.14C5.324 12.832 3.812 10.844 3.812 7.834C3.812 4.544 5.618 2.542 8.194 2.542C10.77 2.542 12.576 4.544 12.576 7.834C12.576 10.788 11.12 12.748 8.95 13.126C9.412 14.036 10.35 14.498 11.47 14.498C11.932 14.498 12.282 14.428 12.548 14.344Z" fill="white"/>
</g>
</svg>
