<svg width="12" height="12" viewBox="0 0 12 12" fill="none" xmlns="http://www.w3.org/2000/svg">
<g id="&#229;&#155;&#158;&#230;&#148;&#190;" clip-path="url(#clip0_401_1358)">
<path id="Vector" fill-rule="evenodd" clip-rule="evenodd" d="M10.4131 5.80105L11.6036 7.03188C11.6173 7.04631 11.625 7.06541 11.625 7.08527C11.625 7.10512 11.6173 7.12423 11.6036 7.13866C11.5969 7.14559 11.5889 7.15112 11.5801 7.15491C11.5712 7.1587 11.5617 7.16068 11.552 7.16071H10.7811C10.2556 9.29295 8.31424 10.875 5.99972 10.875C3.68519 10.875 1.7438 9.29272 1.21807 7.16071H2.19029C2.6907 8.77388 4.20692 9.94643 5.99972 9.94643C7.79227 9.94643 9.30849 8.77388 9.80914 7.16071H9.11935C9.10956 7.1605 9.09991 7.15838 9.09095 7.15448C9.08199 7.15057 9.07389 7.14496 9.06712 7.13795C9.06035 7.13094 9.05504 7.12268 9.0515 7.11364C9.04795 7.10461 9.04624 7.09496 9.04646 7.08527C9.04646 7.0653 9.05419 7.04604 9.06778 7.03188L10.2582 5.80105C10.2681 5.7906 10.2801 5.78227 10.2934 5.77657C10.3067 5.77087 10.3211 5.76794 10.3356 5.76794C10.3501 5.76794 10.3644 5.77087 10.3777 5.77657C10.391 5.78227 10.4032 5.7906 10.4131 5.80105ZM0.44719 4.83929H2.88008C2.8993 4.83929 2.91805 4.84718 2.93165 4.86134C2.94325 4.87364 2.95053 4.88933 2.95239 4.90607C2.95425 4.92281 2.95059 4.93969 2.94196 4.9542L2.93165 4.96813L1.74122 6.19895C1.72386 6.21731 1.70042 6.2289 1.67517 6.23158C1.64992 6.23426 1.62453 6.22787 1.60363 6.21357L1.58652 6.19895L0.396095 4.96813C0.386985 4.95852 0.380514 4.94676 0.377302 4.93397C0.374089 4.92118 0.374242 4.90779 0.377745 4.89507C0.381248 4.88236 0.387985 4.87074 0.397312 4.86134C0.406639 4.85194 0.418244 4.84507 0.431018 4.84138L0.44719 4.83929ZM5.99972 1.125C8.31424 1.125 10.2556 2.70729 10.7814 4.83929H9.80914C9.30873 3.22636 7.79251 2.05357 5.99972 2.05357C4.20716 2.05357 2.69094 3.22613 2.19029 4.83929H1.21831C1.7438 2.70705 3.68519 1.125 5.99972 1.125Z" fill="white" stroke="white" stroke-width="0.45"/>
</g>
<defs>
<clipPath id="clip0_401_1358">
<rect width="12" height="12" fill="white"/>
</clipPath>
</defs>
</svg>
