<svg width="14" height="14" viewBox="0 0 14 14" fill="none" xmlns="http://www.w3.org/2000/svg">
<g id="&#233;&#135;&#141;&#231;&#189;&#174; 1">
<path id="Ellipse 2134" d="M2.78166 9.68581C2.31616 9.98219 2.17354 10.6069 2.54299 11.0169C3.20904 11.7559 4.05222 12.3218 5.00004 12.6569C6.26372 13.1036 7.64061 13.1144 8.91113 12.6875C10.1817 12.2606 11.2726 11.4205 12.0101 10.3013C12.7476 9.18211 13.0891 7.8482 12.9801 6.51231C12.8712 5.17641 12.3181 3.91545 11.409 2.93053C10.4999 1.9456 9.28726 1.29343 7.96435 1.078C6.64144 0.86258 5.28449 1.09631 4.1099 1.74193C3.2289 2.22617 2.48855 2.9212 1.95104 3.75837C1.6529 4.22274 1.89485 4.81613 2.40222 5.03317V5.03317C2.90959 5.25021 3.48823 5.00379 3.82393 4.5658C4.15914 4.12844 4.58331 3.76211 5.0725 3.49322C5.85587 3.06264 6.76086 2.90676 7.64315 3.05043C8.52544 3.1941 9.33422 3.62906 9.94051 4.28594C10.5468 4.94282 10.9157 5.78379 10.9884 6.67474C11.061 7.56569 10.8333 8.45532 10.3414 9.20176C9.84956 9.94819 9.12195 10.5084 8.27459 10.7932C7.42724 11.0779 6.50895 11.0707 5.66616 10.7727C5.13987 10.5867 4.66195 10.2939 4.26031 9.91665C3.85808 9.53883 3.24716 9.38942 2.78166 9.68581V9.68581Z" fill="#A7D2FF"/>
<path id="Vector 1021" d="M3 1L2.06213 4.75149C2.03057 4.87772 2.12604 5 2.25616 5H6" stroke="#A7D2FF" stroke-width="2" stroke-linecap="round"/>
</g>
</svg>
