<svg width="14" height="14" viewBox="0 0 14 14" fill="none" xmlns="http://www.w3.org/2000/svg">
<g id="&#232;&#191;&#156;&#231;&#168;&#139;&#230;&#142;&#167;&#229;&#136;&#182; ">
<path id="Subtract" fill-rule="evenodd" clip-rule="evenodd" d="M1.5 10V6.93699C1.65981 6.97812 1.82735 7 2 7H2.5V10C2.5 10.5523 2.94772 11 3.5 11H8C8 11.3643 8.09739 11.7058 8.26756 12H3.5C2.39543 12 1.5 11.1046 1.5 10ZM12.5 7.06301V4C12.5 2.89543 11.6046 2 10.5 2H5.73244C5.90261 2.29417 6 2.63571 6 3H10.5C11.0523 3 11.5 3.44772 11.5 4V7H12C12.1726 7 12.3402 7.02188 12.5 7.06301Z" fill="#D1D5DD"/>
<rect id="Rectangle 6756" x="0.5" y="1.5" width="5" height="5" rx="1.5" stroke="#D1D5DD" stroke-linejoin="round"/>
<rect id="Rectangle 6757" x="8.5" y="7.5" width="5" height="5" rx="1.5" stroke="#D1D5DD" stroke-linejoin="round"/>
</g>
</svg>
