<svg width="16" height="16" viewBox="0 0 16 16" fill="none" xmlns="http://www.w3.org/2000/svg">
<g id="Group 171">
<g id="Ellipse 306">
<mask id="path-1-inside-1_401_1337" fill="white">
<path d="M14.5188 5.44937C13.916 3.90895 12.7873 2.63174 11.3326 1.84422C9.87796 1.05671 8.19142 0.809772 6.57206 1.1472C4.9527 1.48463 3.50516 2.38463 2.4861 3.6876C1.46705 4.99057 0.942349 6.61231 1.00503 8.26527C1.06771 9.91822 1.71373 11.4956 2.82853 12.7176C3.94333 13.9397 5.45488 14.7275 7.09515 14.9413C8.73541 15.1551 10.3984 14.7812 11.7892 13.8857C12.9016 13.1696 13.7824 12.1569 14.3383 10.971C14.5699 10.4768 14.2702 9.92011 13.7484 9.76032C13.2266 9.60054 12.6822 9.90087 12.4235 10.3814C12.0231 11.1252 11.4387 11.7611 10.7195 12.2241C9.7213 12.8667 8.52779 13.1351 7.3506 12.9817C6.17341 12.8282 5.08859 12.2628 4.28852 11.3858C3.48844 10.5087 3.0248 9.37668 2.97982 8.19038C2.93483 7.00408 3.3114 5.84018 4.04276 4.90506C4.77412 3.96994 5.813 3.32402 6.97519 3.08185C8.13738 2.83968 9.34778 3.01691 10.3918 3.58209C11.4357 4.14728 12.2458 5.06392 12.6784 6.16945L14.5188 5.44937Z"/>
</mask>
<path d="M14.5188 5.44937L15.2475 7.31187L17.11 6.58312L16.3813 4.72061L14.5188 5.44937ZM12.6784 6.16945L10.8159 6.89821L11.5447 8.76071L13.4072 8.03196L12.6784 6.16945ZM12.4235 10.3814L14.1846 11.3294L12.4235 10.3814ZM14.3383 10.971L12.5273 10.1221L14.3383 10.971ZM16.3813 4.72061C15.6063 2.74007 14.155 1.09795 12.2848 0.0854269L10.3804 3.60302C11.4195 4.16553 12.2257 5.07782 12.6563 6.17812L16.3813 4.72061ZM12.2848 0.0854269C10.4145 -0.927093 8.24611 -1.24458 6.16408 -0.810742L6.98005 3.10515C8.13673 2.86413 9.3414 3.04051 10.3804 3.60302L12.2848 0.0854269ZM6.16408 -0.810742C4.08204 -0.376902 2.22091 0.780234 0.910705 2.45548L4.0615 4.91972C4.7894 3.98902 5.82336 3.34617 6.98005 3.10515L6.16408 -0.810742ZM0.910705 2.45548C-0.399502 4.13072 -1.07412 6.21583 -0.993533 8.34106L3.00359 8.18948C2.95882 7.0088 3.33361 5.85041 4.0615 4.91972L0.910705 2.45548ZM-0.993533 8.34106C-0.912942 10.4663 -0.0823475 12.4943 1.35097 14.0655L4.3061 11.3697C3.50981 10.4968 3.04837 9.37016 3.00359 8.18948L-0.993533 8.34106ZM1.35097 14.0655C2.78428 15.6367 4.7277 16.6496 6.83662 16.9245L7.35368 12.9581C6.18206 12.8053 5.10238 12.2426 4.3061 11.3697L1.35097 14.0655ZM6.83662 16.9245C8.94553 17.1994 11.0837 16.7186 12.8719 15.5674L10.7066 12.2041C9.71315 12.8437 8.52529 13.1108 7.35368 12.9581L6.83662 16.9245ZM12.8719 15.5674C14.3021 14.6466 15.4345 13.3446 16.1492 11.8198L12.5273 10.1221C12.1303 10.9693 11.5011 11.6926 10.7066 12.2041L12.8719 15.5674ZM10.6625 9.43332C10.4214 9.88112 10.0697 10.2638 9.63684 10.5425L11.8021 13.9057C12.8077 13.2583 13.6247 12.3694 14.1846 11.3294L10.6625 9.43332ZM9.63684 10.5425C9.03604 10.9293 8.31768 11.0908 7.60913 10.9984L7.09207 14.9649C8.73791 15.1794 10.4066 14.8042 11.8021 13.9057L9.63684 10.5425ZM7.60913 10.9984C6.90058 10.9061 6.24764 10.5658 5.76608 10.0379L2.81095 12.7337C3.92954 13.9599 5.44623 14.7503 7.09207 14.9649L7.60913 10.9984ZM5.76608 10.0379C5.28452 9.50999 5.00546 8.82862 4.97838 8.11459L0.981253 8.26617C1.04415 9.92474 1.69236 11.5075 2.81095 12.7337L5.76608 10.0379ZM4.97838 8.11459C4.9513 7.40057 5.17796 6.70002 5.61816 6.13718L2.46736 3.67294C1.44485 4.98033 0.918358 6.6076 0.981253 8.26617L4.97838 8.11459ZM5.61816 6.13718C6.05836 5.57433 6.68366 5.18556 7.38317 5.0398L6.56721 1.12391C4.94234 1.46249 3.48988 2.36554 2.46736 3.67294L5.61816 6.13718ZM7.38317 5.0398C8.08269 4.89404 8.81123 5.00071 9.43959 5.34089L11.3439 1.8233C9.88434 1.03311 8.19207 0.785331 6.56721 1.12391L7.38317 5.0398ZM9.43959 5.34089C10.068 5.68108 10.5556 6.23279 10.8159 6.89821L14.5409 5.4407C13.9361 3.89504 12.8035 2.61349 11.3439 1.8233L9.43959 5.34089ZM13.4072 8.03196L15.2475 7.31187L13.79 3.58687L11.9497 4.30695L13.4072 8.03196ZM14.334 7.84798C12.6851 7.34304 11.2575 8.32809 10.6625 9.43332L14.1846 11.3294C14.1242 11.4416 14.0249 11.5491 13.8716 11.6246C13.7063 11.7061 13.4476 11.7599 13.1628 11.6727L14.334 7.84798ZM16.1492 11.8198C16.9793 10.0489 15.8259 8.30483 14.334 7.84798L13.1628 11.6727C12.9049 11.5937 12.6749 11.4086 12.5394 11.1394C12.3959 10.8543 12.3634 10.4719 12.5273 10.1221L16.1492 11.8198Z" fill="white" mask="url(#path-1-inside-1_401_1337)"/>
</g>
<path id="Vector 217" d="M15 6.5V4.20711C15 3.76165 14.4614 3.53857 14.1464 3.85355L11.8536 6.14645C11.5386 6.46143 11.7617 7 12.2071 7H14.5C14.7761 7 15 6.77614 15 6.5Z" fill="white"/>
</g>
</svg>
