<svg width="16" height="16" viewBox="0 0 16 16" fill="none" xmlns="http://www.w3.org/2000/svg">
<g id="icon">
<path id="Ellipse 70" d="M8 8L7 7.99994V7.99977V7.99949V7.99909V7.99858V7.99795V7.99722V7.99637V7.99541V7.99434V7.99316V7.99186V7.99046V7.98895V7.98733V7.9856V7.98376V7.98181V7.97975V7.97759V7.97532V7.97294V7.97046V7.96786V7.96517V7.96237V7.95946V7.95645V7.95333V7.95011V7.94679V7.94336V7.93983V7.9362V7.93246V7.92862V7.92468V7.92064V7.9165V7.91226V7.90792V7.90348V7.89894V7.8943V7.88956V7.88472V7.87979V7.87476V7.86963V7.8644V7.85908V7.85366V7.84814V7.84253V7.83682V7.83102V7.82513V7.81914V7.81306V7.80688V7.80061V7.79425V7.7878V7.78125V7.77461V7.76788V7.76106V7.75415V7.74715V7.74006V7.73288V7.72562V7.71826V7.71081V7.70328V7.69566V7.68795V7.68016V7.67227V7.66431V7.65625V7.64811V7.63989V7.63158V7.62319V7.61471V7.60615V7.5975V7.58878V7.57997V7.57107V7.5621V7.55304V7.54391V7.53469V7.52539V7.51601V7.50655V7.49702V7.4874V7.47771V7.46793V7.45808V7.44815V7.43814V7.42806V7.4179V7.40767V7.39735V7.38697V7.3765V7.36597V7.35536V7.34467V7.33391V7.32308V7.31217V7.30119V7.29014V7.27902V7.26783V7.25656V7.24523V7.23382V7.22235V7.2108V7.19918V7.1875V7.17575V7.16393V7.15204V7.14008V7.12806V7.11596V7.10381V7.09158V7.07929V7.06694V7.05452V7.04203V7.02949V7.01687V7.0042V6.99146V6.97865V6.96579V6.95286V6.93987V6.92682V6.91371V6.90053V6.8873V6.874V6.86065V6.84724V6.83377V6.82024V6.80665V6.793V6.7793V6.76554V6.75172V6.73784V6.72391V6.70992V6.69588V6.68179V6.66763V6.65343V6.63917V6.62485V6.61049V6.59607V6.58159V6.56707V6.55249V6.53786V6.52318V6.50845V6.49367V6.47884V6.46396V6.44903V6.43405V6.41902V6.40395V6.38882V6.37365V6.35844V6.34317V6.32786V6.3125V6.2971V6.28165V6.26615V6.25061V6.23503V6.2194V6.20373V6.18802V6.17226V6.15646V6.14062V6.12474V6.10881V6.09285V6.07684V6.06079V6.0447V6.02858V6.01241V5.9962V5.97996V5.96368V5.94736V5.931V5.9146V5.89817V5.8817V5.8652V5.84866V5.83208V5.81547V5.79883V5.78215V5.76543V5.74869V5.73191V5.71509V5.69825V5.68137V5.66446V5.64752V5.63055V5.61354V5.59651V5.57944V5.56235V5.54523V5.52808V5.5109V5.49369V5.47645V5.45919V5.4419V5.42458V5.40723V5.38986V5.37247V5.35504V5.3376V5.32013V5.30263V5.28511V5.26757V5.25V5.23241V5.2148V5.19716V5.17951V5.16183V5.14413V5.12641V5.10867V5.09091V5.07313V5.05534V5.03752V5.01968V5.00183V4.98395V4.96606V4.94816V4.93023V4.91229V4.89434V4.87636V4.85838V4.84037V4.82236V4.80433V4.78628V4.76822V4.75015V4.73206V4.71397V4.69586V4.67773V4.6596V4.64146V4.6233V4.60514V4.58696V4.56878V4.55058V4.53238V4.51417V4.49595V4.47772V4.45948V4.44124V4.42299V4.40474V4.38647V4.36821V4.34993V4.33166V4.31337V4.29509V4.2768V4.2585V4.2402V4.2219V4.2036V4.1853V4.16699V4.14868V4.13037V4.11206V4.09375V4.07544V4.05713V4.03882V4.02051V4.0022V3.9839V3.9656V3.9473V3.929V3.9107V3.89241V3.87413V3.85584V3.83757V3.81929V3.80103V3.78276V3.76451V3.74626V3.72802V3.70978V3.69155V3.67333V3.65512V3.63692V3.61872V3.60054V3.58236V3.5642V3.54604V3.5279V3.50977V3.49164V3.47353V3.45544V3.43735V3.41928V3.40122V3.38317V3.36514V3.34713V3.32912V3.31114V3.29316V3.27521V3.25727V3.23934V3.22144V3.20355V3.18567V3.16782V3.14998V3.13216V3.11437V3.09659V3.07883V3.06109V3.04337V3.02567V3.00799V2.99034V2.9727V2.95509V2.9375V2.91993V2.90239V2.88487V2.86737V2.8499V2.83246V2.81503V2.79764V2.78027V2.76292V2.7456V2.72831V2.71105V2.69381V2.6766V2.65942V2.64227V2.62515V2.60806V2.59099V2.57396V2.55695V2.53998V2.52304V2.50613V2.48925V2.47241V2.45559V2.43881V2.42207V2.40535V2.38867V2.37203V2.35542V2.33884V2.3223V2.3058V2.28933V2.2729V2.2565V2.24014V2.22382V2.20754V2.1913V2.17509V2.15892V2.1428V2.12671V2.11066V2.09465V2.08296C4.16229 2.55904 2 5.027 2 8C2 11.3137 4.68629 14 8 14C10.973 14 13.441 11.8377 13.917 9H13.9122H13.8936H13.875H13.8565H13.8379H13.8193H13.8007H13.7821H13.7635H13.7449H13.7262H13.7076H13.689H13.6703H13.6516H13.633H13.6143H13.5956H13.577H13.5583H13.5396H13.5209H13.5022H13.4835H13.4648H13.4461H13.4273H13.4086H13.3899H13.3712H13.3524H13.3337H13.315H13.2962H13.2775H13.2587H13.24H13.2212H13.2025H13.1837H13.165H13.1462H13.1275H13.1088H13.09H13.0713H13.0525H13.0338H13.015H12.9963H12.9775H12.9588H12.94H12.9213H12.9026H12.8838H12.8651H12.8464H12.8276H12.8089H12.7902H12.7715H12.7528H12.7341H12.7154H12.6967H12.678H12.6593H12.6406H12.622H12.6033H12.5846H12.566H12.5473H12.5287H12.51H12.4914H12.4728H12.4542H12.4356H12.417H12.3984H12.3798H12.3612H12.3427H12.3241H12.3056H12.2871H12.2685H12.25H12.2315H12.213H12.1945H12.1761H12.1576H12.1392H12.1207H12.1023H12.0839H12.0655H12.0471H12.0287H12.0104H11.992H11.9737H11.9554H11.9371H11.9188H11.9005H11.8823H11.864H11.8458H11.8276H11.8094H11.7912H11.773H11.7549H11.7367H11.7186H11.7005H11.6824H11.6643H11.6463H11.6283H11.6102H11.5922H11.5743H11.5563H11.5384H11.5204H11.5025H11.4847H11.4668H11.449H11.4311H11.4133H11.3955H11.3778H11.36H11.3423H11.3246H11.307H11.2893H11.2717H11.2541H11.2365H11.2189H11.2014H11.1839H11.1664H11.1489H11.1315H11.114H11.0966H11.0793H11.0619H11.0446H11.0273H11.01H10.9928H10.9756H10.9584H10.9412H10.9241H10.907H10.8899H10.8728H10.8558H10.8388H10.8218H10.8049H10.788H10.7711H10.7542H10.7374H10.7206H10.7038H10.6871H10.6704H10.6537H10.6371H10.6204H10.6038H10.5873H10.5708H10.5543H10.5378H10.5214H10.505H10.4886H10.4723H10.456H10.4397H10.4235H10.4073H10.3911H10.375H10.3589H10.3428H10.3268H10.3108H10.2949H10.2789H10.2631H10.2472H10.2314H10.2156H10.1999H10.1842H10.1685H10.1529H10.1373H10.1217H10.1062H10.0907H10.0753H10.0599H10.0445H10.0292H10.0139H9.99868H9.98348H9.96831H9.95319H9.9381H9.92306H9.90806H9.8931H9.87817H9.86329H9.84846H9.83366H9.81891H9.8042H9.78953H9.7749H9.76032H9.74578H9.73128H9.71683H9.70242H9.68806H9.67374H9.65946H9.64523H9.63105H9.61691H9.60281H9.58876H9.57476H9.56081H9.5469H9.53303H9.51921H9.50545H9.49172H9.47805H9.46442H9.45084H9.43731H9.42383H9.41039H9.39701H9.38367H9.37039H9.35715H9.34396H9.33082H9.31774H9.3047H9.29171H9.27878H9.2659H9.25306H9.24028H9.22755H9.21487H9.20225H9.18968H9.17716H9.16469H9.15227H9.13991H9.12761H9.11535H9.10315H9.09101H9.07892H9.06688H9.0549H9.04297H9.0311H9.01929H9.00753H8.99582H8.98418H8.97259H8.96105H8.94957H8.93815H8.92679H8.91549H8.90424H8.89305H8.88192H8.87085H8.85983H8.84888H8.83798H8.82715H8.81637H8.80565H8.79499H8.7844H8.77386H8.76339H8.75297H8.74262H8.73233H8.7221H8.71193H8.70182H8.69178H8.68179H8.67188H8.66202H8.65223H8.6425H8.63283H8.62323H8.61369H8.60422H8.59481H8.58546H8.57618H8.56697H8.55782H8.54874H8.53972H8.53077H8.52188H8.51306H8.50431H8.49563H8.48701H8.47846H8.46997H8.46156H8.45321H8.44493H8.43672H8.42858H8.42051H8.41251H8.40457H8.39671H8.38892H8.38119H8.37354H8.36596H8.35844H8.351H8.34363H8.33633H8.32911H8.32195H8.31487H8.30786H8.30092H8.29405H8.28726H8.28054H8.2739H8.26732H8.26083H8.2544H8.24805H8.24178H8.23558H8.22945H8.2234H8.21743H8.21153H8.2057H8.19996H8.19429H8.18869H8.18317H8.17773H8.17237H8.16709H8.16188H8.15675H8.1517H8.14672H8.14183H8.13701H8.13228H8.12762H8.12304H8.11854H8.11412H8.10978H8.10553H8.10135H8.09725H8.09324H8.0893H8.08545H8.08168H8.07799H8.07438H8.07086H8.06742H8.06406H8.06078H8.05759H8.05448H8.05145H8.04851H8.04565H8.04288H8.04019H8.03759H8.03507H8.03264H8.03029H8.02803H8.02585H8.02376H8.02176H8.01984H8.01801H8.01627H8.01461H8.01305H8.01157H8.01017H8.00887H8.00765H8.00653H8.00549H8.00454H8.00368H8.00291H8.00223H8.00164H8.00114H8.00073H8.00041H8.00018H8.00005L8 8ZM8 8H7V9H8V8Z" stroke="#0E0F0F" stroke-width="2"/>
<path id="Ellipse 71" d="M10 6L10 4.62499L10 1.08296C12.5125 1.50448 14.4955 3.48749 14.9171 6H14.9165H14.9026H14.8887H14.8748H14.861H14.8471H14.8332H14.8194H14.8055H14.7917H14.7779H14.764H14.7502H14.7364H14.7226H14.7088H14.695H14.6812H14.6675H14.6537H14.6399H14.6262H14.6124H14.5987H14.585H14.5712H14.5575H14.5438H14.5301H14.5164H14.5027H14.489H14.4754H14.4617H14.448H14.4344H14.4207H14.4071H14.3934H14.3798H14.3662H14.3526H14.339H14.3254H14.3118H14.2982H14.2846H14.271H14.2574H14.2438H14.2303H14.2167H14.2032H14.1896H14.1761H14.1625H14.149H14.1355H14.122H14.1085H14.0949H14.0814H14.0679H14.0545H14.041H14.0275H14.014H14.0005H13.9871H13.9736H13.9602H13.9467H13.9333H13.9198H13.9064H13.8929H13.8795H13.8661H13.8527H13.8393H13.8259H13.8125H13.7991H13.7857H13.7723H13.7589H13.7455H13.7321H13.7187H13.7054H13.692H13.6786H13.6653H13.6519H13.6386H13.6252H13.6119H13.5985H13.5852H13.5719H13.5586H13.5452H13.5319H13.5186H13.5053H13.492H13.4787H13.4654H13.452H13.4388H13.4255H13.4122H13.3989H13.3856H13.3723H13.359H13.3458H13.3325H13.3192H13.3059H13.2927H13.2794H13.2662H13.2529H13.2396H13.2264H13.2131H13.1999H13.1866H13.1734H13.1602H13.1469H13.1337H13.1205H13.1072H13.094H13.0808H13.0675H13.0543H13.0411H13.0279H13.0147H13.0014H12.9882H12.975H12.9618H12.9486H12.9354H12.9222H12.909H12.8958H12.8826H12.8694H12.8562H12.843H12.8298H12.8166H12.8034H12.7902H12.777H12.7638H12.7506H12.7374H12.7242H12.711H12.6978H12.6846H12.6715H12.6583H12.6451H12.6319H12.6187H12.6055H12.5923H12.5792H12.566H12.5528H12.5396H12.5264H12.5132H12.5001H12.4869H12.4737H12.4605H12.4473H12.4341H12.421H12.4078H12.3946H12.3814H12.3682H12.355H12.3418H12.3287H12.3155H12.3023H12.2891H12.2759H12.2627H12.2495H12.2363H12.2231H12.2099H12.1967H12.1835H12.1704H12.1572H12.144H12.1308H12.1176H12.1043H12.0911H12.0779H12.0647H12.0515H12.0383H12.0251H12.0119H11.9987H11.9855H11.9722H11.959H11.9458H11.9326H11.9193H11.9061H11.8929H11.8797H11.8664H11.8532H11.8399H11.8267H11.8135H11.8002H11.787H11.7737H11.7605H11.7472H11.734H11.7207H11.7074H11.6942H11.6809H11.6676H11.6544H11.6411H11.6278H11.6145H11.6012H11.5879H11.5747H11.5614H11.5481H11.5348H11.5215H11.5081H11.4948H11.4815H11.4682H11.4549H11.4416H11.4282H11.4149H11.4016H11.3882H11.3749H11.3615H11.3482H11.3348H11.3215H11.3081H11.2947H11.2814H11.268H11.2546H11.2412H11.2278H11.2144H11.2011H11.1877H11.1742H11.1608H11.1474H11.134H11.1206H11.1072H11.0937H11.0803H11.0668H11.0534H11.0399H11.0265H11.013H10.9996H10.9861H10.9726H10.9591H10.9456H10.9322H10.9187H10.9052H10.8916H10.8781H10.8646H10.8511H10.8376H10.824H10.8105H10.7969H10.7834H10.7698H10.7563H10.7427H10.7291H10.7155H10.7019H10.6883H10.6747H10.6611H10.6475H10.6339H10.6203H10.6067H10.593H10.5794H10.5657H10.5521H10.5384H10.5247H10.5111H10.4974H10.4837H10.47H10.4563H10.4426H10.4289H10.4151H10.4014H10.3877H10.3739H10.3602H10.3464H10.3326H10.3189H10.3051H10.2913H10.2775H10.2637H10.2499H10.2361H10.2222H10.2084H10.1946H10.1807H10.1669H10.153H10.1391H10.1252H10.1114H10.0975H10.0836H10.0696H10.0557H10.0418H10.0279H10.0139H10Z" stroke="#0E0F0F" stroke-width="2"/>
</g>
</svg>
