<svg width="18" height="18" viewBox="0 0 18 18"  xmlns="http://www.w3.org/2000/svg">
<g id="&#233;&#151;&#170;&#231;&#148;&#181;_lightning 1">
<rect id="Rectangle 6463" x="4" y="4" width="10" height="10" rx="5" />
<path id="Union" fill-rule="evenodd" clip-rule="evenodd" d="M8 16C8 16.5523 8.44772 17 9 17C9.55229 17 10 16.5523 10 16V11.4126L13.2441 14.6567C13.6346 15.0472 14.2678 15.0472 14.6583 14.6567C15.0488 14.2661 15.0488 13.633 14.6583 13.2424L11.4158 10H16C16.5523 10 17 9.55229 17 9C17 8.44772 16.5523 8 16 8H11.4149L14.6575 4.75732C15.0481 4.36679 15.0481 3.73363 14.6575 3.34311C14.267 2.95258 13.6338 2.95258 13.2433 3.34311L10 6.58643V2C10 1.44772 9.55228 1 9 1C8.44771 1 8 1.44772 8 2V6.58417L4.75878 3.34295C4.36826 2.95243 3.73509 2.95243 3.34457 3.34295C2.95405 3.73348 2.95405 4.36664 3.34457 4.75717L6.5874 8H2C1.44772 8 1 8.44772 1 9C1 9.55229 1.44772 10 2 10H6.58643L3.34383 13.2426C2.9533 13.6331 2.9533 14.2663 3.34383 14.6568C3.73435 15.0473 4.36751 15.0473 4.75804 14.6568L8 11.4149V16Z" />
</g>
</svg>
